<svg width="133.605" height="24.425" viewBox="0 0 133.605 24.425" xmlns="http://www.w3.org/2000/svg"><g id="svgGroup" stroke-linecap="round" fill-rule="evenodd" font-size="9pt" stroke="#ffffff" stroke-width="0.25mm" fill="#ffffff" style="stroke:#ffffff;stroke-width:0.25mm;fill:#ffffff"><path d="M 65.725 11.3 L 65.7 12.125 L 54.525 12.125 L 54.325 11.025 L 64.725 11.025 L 64.425 11.45 L 64.425 10.825 A 4.689 4.689 0 0 0 64.242 9.493 A 4.023 4.023 0 0 0 63.813 8.525 Q 63.2 7.525 62.213 6.962 A 4.326 4.326 0 0 0 60.1 6.401 A 5.079 5.079 0 0 0 60.025 6.4 Q 58.45 6.4 57.3 7.087 Q 56.15 7.775 55.538 9.013 A 5.76 5.76 0 0 0 55.03 10.613 A 7.837 7.837 0 0 0 54.925 11.925 A 6.918 6.918 0 0 0 55.086 13.451 A 5.44 5.44 0 0 0 55.613 14.862 Q 56.3 16.125 57.513 16.838 A 5.126 5.126 0 0 0 59.375 17.48 A 6.622 6.622 0 0 0 60.35 17.55 A 6.078 6.078 0 0 0 62.005 17.33 A 5.524 5.524 0 0 0 62.538 17.15 A 5.648 5.648 0 0 0 63.877 16.387 A 6.978 6.978 0 0 0 64.45 15.9 L 65.1 16.825 A 6.731 6.731 0 0 1 63.916 17.726 A 7.564 7.564 0 0 1 63.725 17.837 Q 62.95 18.275 62.063 18.513 Q 61.175 18.75 60.25 18.75 A 7.383 7.383 0 0 1 58.362 18.517 A 6.114 6.114 0 0 1 56.813 17.875 Q 55.325 17 54.488 15.475 A 6.781 6.781 0 0 1 53.709 12.992 A 8.544 8.544 0 0 1 53.65 11.975 A 8.453 8.453 0 0 1 53.805 10.328 A 7 7 0 0 1 54.112 9.237 A 6.627 6.627 0 0 1 55.112 7.441 A 6.181 6.181 0 0 1 55.413 7.088 Q 56.25 6.175 57.425 5.688 A 6.451 6.451 0 0 1 59.441 5.22 A 7.671 7.671 0 0 1 60 5.2 Q 61.25 5.2 62.313 5.637 Q 63.375 6.075 64.162 6.875 A 5.265 5.265 0 0 1 65.303 8.643 A 6.096 6.096 0 0 1 65.363 8.8 A 6.049 6.049 0 0 1 65.701 10.345 Q 65.743 10.806 65.725 11.3 Z M 133.6 11.3 L 133.575 12.125 L 122.4 12.125 L 122.2 11.025 L 132.6 11.025 L 132.3 11.45 L 132.3 10.825 A 4.689 4.689 0 0 0 132.117 9.493 A 4.023 4.023 0 0 0 131.688 8.525 Q 131.075 7.525 130.088 6.962 A 4.326 4.326 0 0 0 127.975 6.401 A 5.079 5.079 0 0 0 127.9 6.4 Q 126.325 6.4 125.175 7.087 Q 124.025 7.775 123.413 9.013 A 5.76 5.76 0 0 0 122.905 10.613 A 7.837 7.837 0 0 0 122.8 11.925 A 6.918 6.918 0 0 0 122.961 13.451 A 5.44 5.44 0 0 0 123.488 14.862 Q 124.175 16.125 125.388 16.838 A 5.126 5.126 0 0 0 127.25 17.48 A 6.622 6.622 0 0 0 128.225 17.55 A 6.078 6.078 0 0 0 129.88 17.33 A 5.524 5.524 0 0 0 130.413 17.15 A 5.648 5.648 0 0 0 131.752 16.387 A 6.978 6.978 0 0 0 132.325 15.9 L 132.975 16.825 A 6.731 6.731 0 0 1 131.791 17.726 A 7.564 7.564 0 0 1 131.6 17.837 Q 130.825 18.275 129.938 18.513 Q 129.05 18.75 128.125 18.75 A 7.383 7.383 0 0 1 126.237 18.517 A 6.114 6.114 0 0 1 124.688 17.875 Q 123.2 17 122.363 15.475 A 6.781 6.781 0 0 1 121.584 12.992 A 8.544 8.544 0 0 1 121.525 11.975 A 8.453 8.453 0 0 1 121.68 10.328 A 7 7 0 0 1 121.987 9.237 A 6.627 6.627 0 0 1 122.987 7.441 A 6.181 6.181 0 0 1 123.288 7.088 Q 124.125 6.175 125.3 5.688 A 6.451 6.451 0 0 1 127.316 5.22 A 7.671 7.671 0 0 1 127.875 5.2 Q 129.125 5.2 130.188 5.637 Q 131.25 6.075 132.038 6.875 A 5.265 5.265 0 0 1 133.178 8.643 A 6.096 6.096 0 0 1 133.238 8.8 A 6.049 6.049 0 0 1 133.576 10.345 Q 133.618 10.806 133.6 11.3 Z M 107.825 22.65 L 108.325 21.65 A 5.165 5.165 0 0 0 109.583 22.537 A 6.356 6.356 0 0 0 110.175 22.8 Q 111.275 23.225 112.5 23.225 A 5.292 5.292 0 0 0 114.143 22.976 A 4.773 4.773 0 0 0 115.025 22.588 A 4.571 4.571 0 0 0 116.728 20.887 A 5.498 5.498 0 0 0 116.813 20.737 A 5.234 5.234 0 0 0 117.348 19.219 Q 117.474 18.574 117.475 17.837 A 8.871 8.871 0 0 0 117.475 17.825 L 117.475 14.65 L 117.725 14.65 Q 117.475 15.825 116.7 16.738 Q 115.925 17.65 114.813 18.2 Q 113.7 18.75 112.45 18.75 A 6.677 6.677 0 0 1 110.419 18.45 A 5.906 5.906 0 0 1 109.15 17.875 Q 107.7 17 106.875 15.488 Q 106.05 13.975 106.05 12 Q 106.05 10.025 106.9 8.5 Q 107.75 6.975 109.175 6.087 Q 110.6 5.2 112.35 5.2 Q 113.15 5.2 113.888 5.413 Q 114.625 5.625 115.275 6 Q 115.925 6.375 116.45 6.887 A 5.262 5.262 0 0 1 117.303 7.963 A 4.952 4.952 0 0 1 117.325 8 A 4.119 4.119 0 0 1 117.712 8.875 A 3.665 3.665 0 0 1 117.8 9.225 L 117.475 9.25 L 117.5 5.375 L 118.725 5.375 L 118.725 17.9 A 8.644 8.644 0 0 1 118.602 19.39 A 6.761 6.761 0 0 1 118.262 20.637 A 6.053 6.053 0 0 1 117.499 22.06 A 5.346 5.346 0 0 1 116.963 22.688 Q 116.125 23.525 114.988 23.975 A 6.513 6.513 0 0 1 112.894 24.416 A 7.58 7.58 0 0 1 112.525 24.425 Q 111.125 24.425 109.875 23.95 Q 108.625 23.475 107.825 22.65 Z M 87.975 18.5 L 77.875 18.5 L 77.875 1 L 88.1 1 L 88.1 2.275 L 79.175 2.275 L 79.175 17.225 L 87.975 17.225 L 87.975 18.5 Z M 49.95 9.375 L 49.6 9.35 L 49.6 0 L 50.875 0 L 50.875 18.5 L 49.6 18.5 L 49.6 14.625 L 49.9 14.55 Q 49.775 15.425 49.288 16.188 Q 48.8 16.95 48.088 17.513 A 5.94 5.94 0 0 1 46.531 18.391 A 6.654 6.654 0 0 1 46.475 18.412 Q 45.575 18.75 44.6 18.75 A 6.498 6.498 0 0 1 42.624 18.458 A 5.748 5.748 0 0 1 41.35 17.875 Q 39.925 17 39.1 15.488 Q 38.275 13.975 38.275 12 Q 38.275 10.025 39.113 8.5 Q 39.95 6.975 41.363 6.087 Q 42.775 5.2 44.525 5.2 Q 45.525 5.2 46.438 5.538 Q 47.35 5.875 48.113 6.45 A 5.148 5.148 0 0 1 49.324 7.728 A 4.922 4.922 0 0 1 49.362 7.788 Q 49.85 8.55 49.95 9.375 Z M 102.35 9.375 L 102 9.35 L 102 0 L 103.275 0 L 103.275 18.5 L 102 18.5 L 102 14.625 L 102.3 14.55 Q 102.175 15.425 101.688 16.188 Q 101.2 16.95 100.488 17.513 A 5.94 5.94 0 0 1 98.931 18.391 A 6.654 6.654 0 0 1 98.875 18.412 Q 97.975 18.75 97 18.75 A 6.498 6.498 0 0 1 95.024 18.458 A 5.748 5.748 0 0 1 93.75 17.875 Q 92.325 17 91.5 15.488 Q 90.675 13.975 90.675 12 Q 90.675 10.025 91.513 8.5 Q 92.35 6.975 93.763 6.087 Q 95.175 5.2 96.925 5.2 Q 97.925 5.2 98.838 5.538 Q 99.75 5.875 100.513 6.45 A 5.148 5.148 0 0 1 101.724 7.728 A 4.922 4.922 0 0 1 101.762 7.788 Q 102.25 8.55 102.35 9.375 Z M 6.875 18.5 L 0 18.5 L 0 1 L 6.9 1 Q 8.4 1 9.463 1.55 A 4.153 4.153 0 0 1 10.647 2.45 A 3.867 3.867 0 0 1 11.1 3.063 Q 11.675 4.025 11.675 5.275 Q 11.675 6.825 10.688 7.95 A 4.379 4.379 0 0 1 8.693 9.235 A 5.687 5.687 0 0 1 8.05 9.4 L 7.95 9 Q 9.45 9.15 10.488 9.788 A 4.711 4.711 0 0 1 11.52 10.633 A 4.084 4.084 0 0 1 12.063 11.388 A 4.256 4.256 0 0 1 12.578 13.088 A 5.246 5.246 0 0 1 12.6 13.575 A 6.213 6.213 0 0 1 12.493 14.749 A 5.077 5.077 0 0 1 12.262 15.575 Q 11.925 16.475 11.213 17.125 A 4.531 4.531 0 0 1 10.18 17.825 A 5.881 5.881 0 0 1 9.425 18.138 A 6.49 6.49 0 0 1 8.329 18.398 Q 7.784 18.481 7.165 18.496 A 11.526 11.526 0 0 1 6.875 18.5 Z M 32.3 18.5 L 31 18.5 L 31 5.375 L 32.25 5.375 L 32.275 8.9 L 32.1 8.575 A 4.257 4.257 0 0 1 32.805 7.033 A 4.904 4.904 0 0 1 32.875 6.937 A 4.451 4.451 0 0 1 34.184 5.781 A 5.175 5.175 0 0 1 34.35 5.687 A 4.069 4.069 0 0 1 35.995 5.214 A 4.941 4.941 0 0 1 36.375 5.2 A 5.224 5.224 0 0 1 37.029 5.24 A 4.652 4.652 0 0 1 37.188 5.262 A 4.336 4.336 0 0 1 37.454 5.313 Q 37.667 5.362 37.825 5.425 L 37.475 6.775 A 5.127 5.127 0 0 0 36.851 6.609 A 4.619 4.619 0 0 0 36.737 6.588 Q 36.375 6.525 36.075 6.525 Q 35.2 6.525 34.5 6.875 Q 33.8 7.225 33.3 7.813 A 4.151 4.151 0 0 0 32.566 9.045 A 3.977 3.977 0 0 0 32.55 9.087 Q 32.3 9.775 32.3 10.475 L 32.3 18.5 Z M 69.7 18.5 L 68.4 18.5 L 68.4 5.375 L 69.65 5.375 L 69.675 8.9 L 69.5 8.575 A 4.257 4.257 0 0 1 70.205 7.033 A 4.904 4.904 0 0 1 70.275 6.937 A 4.451 4.451 0 0 1 71.584 5.781 A 5.175 5.175 0 0 1 71.75 5.687 A 4.069 4.069 0 0 1 73.395 5.214 A 4.941 4.941 0 0 1 73.775 5.2 A 5.224 5.224 0 0 1 74.429 5.24 A 4.652 4.652 0 0 1 74.588 5.262 A 4.336 4.336 0 0 1 74.854 5.313 Q 75.067 5.362 75.225 5.425 L 74.875 6.775 A 5.127 5.127 0 0 0 74.251 6.609 A 4.619 4.619 0 0 0 74.137 6.588 Q 73.775 6.525 73.475 6.525 Q 72.6 6.525 71.9 6.875 Q 71.2 7.225 70.7 7.813 A 4.151 4.151 0 0 0 69.966 9.045 A 3.977 3.977 0 0 0 69.95 9.087 Q 69.7 9.775 69.7 10.475 L 69.7 18.5 Z M 19.573 18.485 A 7.305 7.305 0 0 0 21.575 18.75 A 8.066 8.066 0 0 0 22.535 18.694 A 6.367 6.367 0 0 0 25.05 17.862 Q 26.55 16.975 27.4 15.438 A 6.57 6.57 0 0 0 28.01 13.9 A 7.849 7.849 0 0 0 28.25 11.925 Q 28.25 9.975 27.4 8.462 Q 26.55 6.95 25.05 6.075 A 6.198 6.198 0 0 0 23.431 5.419 A 7.581 7.581 0 0 0 21.575 5.2 A 8.102 8.102 0 0 0 20.743 5.242 A 6.526 6.526 0 0 0 18.112 6.075 Q 16.6 6.95 15.738 8.462 A 6.343 6.343 0 0 0 15.118 9.977 A 7.533 7.533 0 0 0 14.875 11.925 Q 14.875 13.9 15.738 15.438 Q 16.6 16.975 18.113 17.863 A 6.237 6.237 0 0 0 19.573 18.485 Z M 21.575 17.55 A 5.83 5.83 0 0 0 23.231 17.322 A 5.029 5.029 0 0 0 24.375 16.825 Q 25.6 16.1 26.288 14.825 A 5.758 5.758 0 0 0 26.937 12.667 A 7.146 7.146 0 0 0 26.975 11.925 Q 26.975 10.3 26.288 9.063 Q 25.6 7.825 24.375 7.112 A 5.275 5.275 0 0 0 22.2 6.429 A 6.527 6.527 0 0 0 21.575 6.4 A 5.934 5.934 0 0 0 19.935 6.619 A 5.077 5.077 0 0 0 18.775 7.112 Q 17.55 7.825 16.85 9.075 A 5.511 5.511 0 0 0 16.183 11.242 A 6.83 6.83 0 0 0 16.15 11.925 A 6.449 6.449 0 0 0 16.365 13.62 A 5.472 5.472 0 0 0 16.85 14.825 Q 17.55 16.1 18.775 16.825 A 5.222 5.222 0 0 0 20.997 17.525 A 6.446 6.446 0 0 0 21.575 17.55 Z M 44.7 17.6 A 4.858 4.858 0 0 0 46.301 17.342 A 4.403 4.403 0 0 0 47.237 16.887 A 4.904 4.904 0 0 0 48.83 15.21 A 5.914 5.914 0 0 0 49 14.9 A 5.932 5.932 0 0 0 49.587 12.97 A 7.568 7.568 0 0 0 49.65 11.975 A 7.13 7.13 0 0 0 49.477 10.373 A 5.729 5.729 0 0 0 49 9.05 A 5.323 5.323 0 0 0 47.977 7.642 A 4.851 4.851 0 0 0 47.237 7.05 A 4.485 4.485 0 0 0 45.076 6.339 A 5.532 5.532 0 0 0 44.675 6.325 A 5.191 5.191 0 0 0 43.053 6.571 A 4.607 4.607 0 0 0 42.012 7.063 Q 40.85 7.8 40.2 9.088 A 6.075 6.075 0 0 0 39.592 11.197 A 7.534 7.534 0 0 0 39.55 12 A 6.772 6.772 0 0 0 39.756 13.697 A 5.744 5.744 0 0 0 40.2 14.875 Q 40.85 16.15 42.013 16.875 Q 43.175 17.6 44.7 17.6 Z M 97.1 17.6 A 4.858 4.858 0 0 0 98.701 17.342 A 4.403 4.403 0 0 0 99.637 16.887 A 4.904 4.904 0 0 0 101.23 15.21 A 5.914 5.914 0 0 0 101.4 14.9 A 5.932 5.932 0 0 0 101.987 12.97 A 7.568 7.568 0 0 0 102.05 11.975 A 7.13 7.13 0 0 0 101.877 10.373 A 5.729 5.729 0 0 0 101.4 9.05 A 5.323 5.323 0 0 0 100.377 7.642 A 4.851 4.851 0 0 0 99.637 7.05 A 4.485 4.485 0 0 0 97.476 6.339 A 5.532 5.532 0 0 0 97.075 6.325 A 5.191 5.191 0 0 0 95.453 6.571 A 4.607 4.607 0 0 0 94.412 7.063 Q 93.25 7.8 92.6 9.088 A 6.075 6.075 0 0 0 91.992 11.197 A 7.534 7.534 0 0 0 91.95 12 A 6.772 6.772 0 0 0 92.156 13.697 A 5.744 5.744 0 0 0 92.6 14.875 Q 93.25 16.15 94.413 16.875 Q 95.575 17.6 97.1 17.6 Z M 112.525 17.55 A 5.007 5.007 0 0 0 114.04 17.328 A 4.376 4.376 0 0 0 115.087 16.837 A 4.949 4.949 0 0 0 116.724 15.094 A 5.923 5.923 0 0 0 116.85 14.863 A 5.845 5.845 0 0 0 117.443 12.908 A 7.392 7.392 0 0 0 117.5 11.975 Q 117.5 10.35 116.863 9.1 Q 116.225 7.85 115.088 7.125 A 4.649 4.649 0 0 0 112.769 6.406 A 5.631 5.631 0 0 0 112.5 6.4 A 5.296 5.296 0 0 0 110.833 6.656 A 4.734 4.734 0 0 0 109.825 7.125 Q 108.65 7.85 107.988 9.112 A 5.78 5.78 0 0 0 107.377 11.115 A 7.288 7.288 0 0 0 107.325 12 A 6.611 6.611 0 0 0 107.512 13.601 A 5.484 5.484 0 0 0 107.987 14.85 Q 108.65 16.1 109.838 16.825 A 4.985 4.985 0 0 0 112.241 17.543 A 6.029 6.029 0 0 0 112.525 17.55 Z M 1.3 10.025 L 1.3 17.225 L 6.875 17.225 Q 8.239 17.225 9.159 16.869 A 3.074 3.074 0 0 0 10.213 16.213 A 3.397 3.397 0 0 0 11.241 13.915 A 4.553 4.553 0 0 0 11.25 13.625 A 3.71 3.71 0 0 0 11.115 12.604 A 3.092 3.092 0 0 0 10.725 11.75 A 3.447 3.447 0 0 0 9.638 10.706 A 4.296 4.296 0 0 0 9.238 10.487 Q 8.376 10.073 7.163 10.03 A 8.07 8.07 0 0 0 6.875 10.025 L 1.3 10.025 Z M 1.3 2.275 L 1.3 8.75 L 6.75 8.75 Q 7.775 8.75 8.588 8.313 A 3.465 3.465 0 0 0 9.747 7.323 A 3.403 3.403 0 0 0 9.875 7.138 Q 10.35 6.4 10.35 5.45 A 3.273 3.273 0 0 0 10.157 4.305 A 2.887 2.887 0 0 0 9.375 3.163 Q 8.464 2.334 6.921 2.279 A 6.245 6.245 0 0 0 6.7 2.275 L 1.3 2.275 Z M 86.675 10.1 L 78.525 10.1 L 78.525 8.825 L 86.675 8.825 L 86.675 10.1 Z" vector-effect="non-scaling-stroke"/></g></svg>