<svg width="147.976" height="24.25" viewBox="0 0 147.976 24.25" xmlns="http://www.w3.org/2000/svg"><g id="svgGroup" stroke-linecap="round" fill-rule="evenodd" font-size="9pt" stroke="#ffffff" stroke-width="0.25mm" fill="#ffffff" style="stroke:#ffffff;stroke-width:0.25mm;fill:#ffffff"><path d="M 68.95 11.45 L 68.925 12.55 L 58.2 12.55 L 57.625 10.5 L 66.7 10.5 L 66.325 10.925 L 66.325 10.325 Q 66.25 9.5 65.775 8.85 Q 65.3 8.2 64.575 7.825 Q 63.85 7.45 63 7.45 A 5.9 5.9 0 0 0 61.974 7.534 Q 61.275 7.658 60.725 7.962 Q 59.8 8.475 59.325 9.463 Q 58.85 10.45 58.85 11.9 A 5.533 5.533 0 0 0 58.976 13.109 A 4.248 4.248 0 0 0 59.425 14.287 Q 60 15.3 61.05 15.85 A 4.781 4.781 0 0 0 62.608 16.341 A 6.154 6.154 0 0 0 63.475 16.4 A 5.146 5.146 0 0 0 64.804 16.233 A 4.623 4.623 0 0 0 65.288 16.075 A 4.572 4.572 0 0 0 65.984 15.728 Q 66.517 15.408 67.1 14.9 L 68.4 16.725 A 5.517 5.517 0 0 1 67.499 17.448 A 6.839 6.839 0 0 1 66.938 17.775 Q 66.075 18.225 65.113 18.488 A 7.32 7.32 0 0 1 63.602 18.739 A 6.609 6.609 0 0 1 63.225 18.75 A 8.089 8.089 0 0 1 61.218 18.51 A 6.67 6.67 0 0 1 59.638 17.887 Q 58.075 17.025 57.188 15.525 A 6.383 6.383 0 0 1 56.342 12.907 A 7.972 7.972 0 0 1 56.3 12.075 A 8.329 8.329 0 0 1 56.472 10.353 A 6.937 6.937 0 0 1 56.8 9.25 A 6.853 6.853 0 0 1 57.959 7.292 A 6.478 6.478 0 0 1 58.188 7.038 Q 59.075 6.1 60.313 5.587 A 6.827 6.827 0 0 1 62.596 5.085 A 7.963 7.963 0 0 1 63 5.075 A 5.867 5.867 0 0 1 65.027 5.422 A 5.575 5.575 0 0 1 65.375 5.562 Q 66.475 6.05 67.288 6.9 A 5.846 5.846 0 0 1 68.51 8.84 A 6.65 6.65 0 0 1 68.538 8.913 A 6.532 6.532 0 0 1 68.934 10.786 Q 68.951 11.04 68.951 11.302 A 8.141 8.141 0 0 1 68.95 11.45 Z M 147.975 11.45 L 147.95 12.55 L 137.225 12.55 L 136.65 10.5 L 145.725 10.5 L 145.35 10.925 L 145.35 10.325 Q 145.275 9.5 144.8 8.85 Q 144.325 8.2 143.6 7.825 Q 142.875 7.45 142.025 7.45 A 5.9 5.9 0 0 0 140.999 7.534 Q 140.3 7.658 139.75 7.962 Q 138.825 8.475 138.35 9.463 Q 137.875 10.45 137.875 11.9 A 5.533 5.533 0 0 0 138.001 13.109 A 4.248 4.248 0 0 0 138.45 14.287 Q 139.025 15.3 140.075 15.85 A 4.781 4.781 0 0 0 141.633 16.341 A 6.154 6.154 0 0 0 142.5 16.4 A 5.146 5.146 0 0 0 143.829 16.233 A 4.623 4.623 0 0 0 144.313 16.075 A 4.572 4.572 0 0 0 145.009 15.728 Q 145.542 15.408 146.125 14.9 L 147.425 16.725 A 5.517 5.517 0 0 1 146.524 17.448 A 6.839 6.839 0 0 1 145.963 17.775 Q 145.1 18.225 144.138 18.488 A 7.32 7.32 0 0 1 142.627 18.739 A 6.609 6.609 0 0 1 142.25 18.75 A 8.089 8.089 0 0 1 140.243 18.51 A 6.67 6.67 0 0 1 138.663 17.887 Q 137.1 17.025 136.213 15.525 A 6.383 6.383 0 0 1 135.367 12.907 A 7.972 7.972 0 0 1 135.325 12.075 A 8.329 8.329 0 0 1 135.497 10.353 A 6.937 6.937 0 0 1 135.825 9.25 A 6.853 6.853 0 0 1 136.984 7.292 A 6.478 6.478 0 0 1 137.213 7.038 Q 138.1 6.1 139.338 5.587 A 6.827 6.827 0 0 1 141.621 5.085 A 7.963 7.963 0 0 1 142.025 5.075 A 5.867 5.867 0 0 1 144.052 5.422 A 5.575 5.575 0 0 1 144.4 5.562 Q 145.5 6.05 146.313 6.9 A 5.846 5.846 0 0 1 147.535 8.84 A 6.65 6.65 0 0 1 147.563 8.913 A 6.532 6.532 0 0 1 147.959 10.786 Q 147.976 11.04 147.976 11.302 A 8.141 8.141 0 0 1 147.975 11.45 Z M 120.75 22.675 L 121.7 20.675 A 5.167 5.167 0 0 0 122.599 21.222 Q 123.039 21.435 123.558 21.599 A 8.115 8.115 0 0 0 123.562 21.6 A 7.396 7.396 0 0 0 125.569 21.947 A 6.928 6.928 0 0 0 125.775 21.95 A 6.995 6.995 0 0 0 126.743 21.887 Q 127.261 21.814 127.697 21.659 A 3.75 3.75 0 0 0 128.075 21.5 Q 129 21.05 129.475 20.175 Q 129.95 19.3 129.95 18 L 129.95 15.475 L 130.225 15.65 Q 130.1 16.425 129.413 17.138 Q 128.725 17.85 127.7 18.3 Q 126.675 18.75 125.6 18.75 A 6.753 6.753 0 0 1 123.576 18.455 A 5.931 5.931 0 0 1 122.263 17.863 Q 120.8 16.975 119.95 15.438 Q 119.1 13.9 119.1 11.925 A 7.96 7.96 0 0 1 119.336 9.95 A 6.628 6.628 0 0 1 119.937 8.412 Q 120.775 6.875 122.238 5.987 A 6.161 6.161 0 0 1 125.298 5.103 A 7.37 7.37 0 0 1 125.525 5.1 Q 126.275 5.1 126.975 5.288 Q 127.675 5.475 128.275 5.813 A 7.309 7.309 0 0 1 129.041 6.306 A 6.275 6.275 0 0 1 129.35 6.55 A 4.458 4.458 0 0 1 129.841 7.029 A 3.625 3.625 0 0 1 130.125 7.4 A 3.053 3.053 0 0 1 130.328 7.751 Q 130.455 8.009 130.5 8.25 L 129.95 8.45 L 129.95 5.375 L 132.525 5.375 L 132.525 17.7 A 9.163 9.163 0 0 1 132.423 19.097 A 6.803 6.803 0 0 1 132.063 20.488 A 5.666 5.666 0 0 1 131.161 22.066 A 5.243 5.243 0 0 1 130.725 22.537 A 5.649 5.649 0 0 1 129.019 23.65 A 6.711 6.711 0 0 1 128.6 23.812 Q 127.35 24.25 125.775 24.25 Q 124.375 24.25 122.988 23.813 A 8.568 8.568 0 0 1 121.949 23.414 Q 121.255 23.091 120.75 22.675 Z M 100.5 18.5 L 89.475 18.5 L 89.475 1 L 100.5 1 L 100.5 3.6 L 92.175 3.6 L 92.175 15.9 L 100.5 15.9 L 100.5 18.5 Z M 51.725 8.725 L 50.975 8.775 L 50.975 0 L 53.55 0 L 53.55 18.5 L 50.975 18.5 L 50.975 15.375 L 51.475 15.375 A 1.919 1.919 0 0 1 51.295 16.173 A 2.596 2.596 0 0 1 51.075 16.563 A 4.274 4.274 0 0 1 50.475 17.261 A 5.447 5.447 0 0 1 50.012 17.65 A 5.346 5.346 0 0 1 48.855 18.309 A 6.275 6.275 0 0 1 48.488 18.45 Q 47.625 18.75 46.725 18.75 Q 44.925 18.75 43.513 17.863 Q 42.1 16.975 41.275 15.438 A 6.942 6.942 0 0 1 40.508 12.943 A 8.694 8.694 0 0 1 40.45 11.925 A 8.192 8.192 0 0 1 40.679 9.95 A 6.751 6.751 0 0 1 41.263 8.413 Q 42.075 6.875 43.475 5.987 A 5.748 5.748 0 0 1 46.402 5.104 A 6.947 6.947 0 0 1 46.65 5.1 A 5.786 5.786 0 0 1 48.538 5.412 A 6.076 6.076 0 0 1 49.938 6.096 A 5.602 5.602 0 0 1 50.175 6.263 Q 50.9 6.8 51.313 7.438 A 2.731 2.731 0 0 1 51.605 8.028 A 2.121 2.121 0 0 1 51.725 8.725 Z M 114.525 8.725 L 113.775 8.775 L 113.775 0 L 116.35 0 L 116.35 18.5 L 113.775 18.5 L 113.775 15.375 L 114.275 15.375 A 1.919 1.919 0 0 1 114.095 16.173 A 2.596 2.596 0 0 1 113.875 16.563 A 4.274 4.274 0 0 1 113.275 17.261 A 5.447 5.447 0 0 1 112.812 17.65 A 5.346 5.346 0 0 1 111.655 18.309 A 6.275 6.275 0 0 1 111.288 18.45 Q 110.425 18.75 109.525 18.75 Q 107.725 18.75 106.313 17.863 Q 104.9 16.975 104.075 15.438 A 6.942 6.942 0 0 1 103.308 12.943 A 8.694 8.694 0 0 1 103.25 11.925 A 8.192 8.192 0 0 1 103.479 9.95 A 6.751 6.751 0 0 1 104.063 8.413 Q 104.875 6.875 106.275 5.987 A 5.748 5.748 0 0 1 109.202 5.104 A 6.947 6.947 0 0 1 109.45 5.1 A 5.786 5.786 0 0 1 111.338 5.412 A 6.076 6.076 0 0 1 112.738 6.096 A 5.602 5.602 0 0 1 112.975 6.263 Q 113.7 6.8 114.113 7.438 A 2.731 2.731 0 0 1 114.405 8.028 A 2.121 2.121 0 0 1 114.525 8.725 Z M 7.55 18.5 L 0 18.5 L 0 1 L 7.3 1 A 9.34 9.34 0 0 1 8.528 1.076 Q 9.171 1.162 9.714 1.343 A 5.005 5.005 0 0 1 10.125 1.5 A 3.947 3.947 0 0 1 11.188 2.169 A 3.461 3.461 0 0 1 11.862 2.988 Q 12.434 3.948 12.45 5.322 A 6.827 6.827 0 0 1 12.45 5.4 A 4.291 4.291 0 0 1 12.277 6.643 A 3.548 3.548 0 0 1 11.662 7.825 A 3.806 3.806 0 0 1 10.098 8.99 A 4.991 4.991 0 0 1 9.475 9.2 L 9.475 8.7 A 5.671 5.671 0 0 1 10.796 9.149 A 4.888 4.888 0 0 1 11.525 9.587 Q 12.4 10.225 12.888 11.175 Q 13.375 12.125 13.375 13.35 A 6.862 6.862 0 0 1 13.284 14.493 A 5.153 5.153 0 0 1 12.988 15.562 Q 12.6 16.525 11.838 17.175 A 4.932 4.932 0 0 1 10.58 17.948 A 6.023 6.023 0 0 1 10 18.162 A 7.108 7.108 0 0 1 8.773 18.426 A 9.628 9.628 0 0 1 7.55 18.5 Z M 34.325 18.5 L 31.725 18.5 L 31.725 5.375 L 34.325 5.375 L 34.325 9.5 L 34.075 8.5 Q 34.35 7.55 35.012 6.775 Q 35.675 6 36.537 5.55 Q 37.4 5.1 38.325 5.1 A 4.358 4.358 0 0 1 38.991 5.15 A 3.923 3.923 0 0 1 39.138 5.175 Q 39.521 5.249 39.745 5.348 A 1.38 1.38 0 0 1 39.75 5.35 L 39.075 8.15 A 4.089 4.089 0 0 0 38.676 8.008 A 5.031 5.031 0 0 0 38.412 7.938 A 3.065 3.065 0 0 0 37.788 7.851 A 2.82 2.82 0 0 0 37.7 7.85 Q 37.025 7.85 36.412 8.112 Q 35.8 8.375 35.338 8.837 Q 34.875 9.3 34.6 9.913 A 3.175 3.175 0 0 0 34.329 11.071 A 3.716 3.716 0 0 0 34.325 11.25 L 34.325 18.5 Z M 74.35 18.5 L 71.75 18.5 L 71.75 5.375 L 74.35 5.375 L 74.35 9.5 L 74.1 8.5 Q 74.375 7.55 75.038 6.775 Q 75.7 6 76.563 5.55 Q 77.425 5.1 78.35 5.1 A 4.358 4.358 0 0 1 79.016 5.15 A 3.923 3.923 0 0 1 79.163 5.175 Q 79.546 5.249 79.77 5.348 A 1.38 1.38 0 0 1 79.775 5.35 L 79.1 8.15 A 4.089 4.089 0 0 0 78.701 8.008 A 5.031 5.031 0 0 0 78.437 7.938 A 3.065 3.065 0 0 0 77.813 7.851 A 2.82 2.82 0 0 0 77.725 7.85 Q 77.05 7.85 76.438 8.112 Q 75.825 8.375 75.363 8.837 Q 74.9 9.3 74.625 9.913 A 3.175 3.175 0 0 0 74.354 11.071 A 3.716 3.716 0 0 0 74.35 11.25 L 74.35 18.5 Z M 20.162 18.453 A 7.138 7.138 0 0 0 22.25 18.75 Q 24.15 18.75 25.663 17.863 Q 27.175 16.975 28.05 15.438 Q 28.925 13.9 28.925 11.925 A 8.318 8.318 0 0 0 28.883 11.082 A 6.706 6.706 0 0 0 28.05 8.413 Q 27.175 6.875 25.663 5.987 A 6.281 6.281 0 0 0 24.448 5.438 A 6.974 6.974 0 0 0 22.25 5.1 A 7.947 7.947 0 0 0 21.644 5.123 A 6.494 6.494 0 0 0 18.813 5.988 Q 17.3 6.875 16.425 8.413 Q 15.55 9.95 15.55 11.925 A 8.318 8.318 0 0 0 15.592 12.768 A 6.706 6.706 0 0 0 16.425 15.437 Q 17.3 16.975 18.813 17.863 A 6.254 6.254 0 0 0 20.162 18.453 Z M 125.875 16.375 A 4.442 4.442 0 0 0 127.166 16.193 A 3.852 3.852 0 0 0 128.05 15.8 Q 129 15.225 129.525 14.225 A 4.556 4.556 0 0 0 129.999 12.708 A 5.809 5.809 0 0 0 130.05 11.925 A 5.368 5.368 0 0 0 129.898 10.625 A 4.434 4.434 0 0 0 129.513 9.613 Q 128.975 8.6 128.038 8.025 A 3.906 3.906 0 0 0 126.361 7.474 A 4.875 4.875 0 0 0 125.875 7.45 A 4.179 4.179 0 0 0 124.543 7.657 A 3.747 3.747 0 0 0 123.738 8.038 Q 122.8 8.625 122.263 9.638 Q 121.725 10.65 121.725 11.925 A 5.198 5.198 0 0 0 121.895 13.276 A 4.445 4.445 0 0 0 122.262 14.213 Q 122.8 15.225 123.738 15.8 A 3.918 3.918 0 0 0 125.543 16.364 A 4.791 4.791 0 0 0 125.875 16.375 Z M 47.075 16.525 Q 48.25 16.525 49.15 15.925 A 4.071 4.071 0 0 0 50.489 14.431 A 4.852 4.852 0 0 0 50.562 14.288 A 4.934 4.934 0 0 0 51.025 12.725 A 6.219 6.219 0 0 0 51.075 11.925 A 5.852 5.852 0 0 0 50.93 10.598 A 4.763 4.763 0 0 0 50.562 9.563 A 4.261 4.261 0 0 0 49.699 8.366 A 3.951 3.951 0 0 0 49.15 7.925 A 3.587 3.587 0 0 0 47.347 7.333 A 4.422 4.422 0 0 0 47.075 7.325 Q 45.9 7.325 45 7.925 A 4.071 4.071 0 0 0 43.661 9.419 A 4.852 4.852 0 0 0 43.588 9.562 A 4.934 4.934 0 0 0 43.125 11.125 A 6.219 6.219 0 0 0 43.075 11.925 A 5.852 5.852 0 0 0 43.22 13.252 A 4.763 4.763 0 0 0 43.588 14.287 A 4.261 4.261 0 0 0 44.451 15.484 A 3.951 3.951 0 0 0 45 15.925 A 3.587 3.587 0 0 0 46.803 16.517 A 4.422 4.422 0 0 0 47.075 16.525 Z M 109.875 16.525 Q 111.05 16.525 111.95 15.925 A 4.071 4.071 0 0 0 113.289 14.431 A 4.852 4.852 0 0 0 113.362 14.288 A 4.934 4.934 0 0 0 113.825 12.725 A 6.219 6.219 0 0 0 113.875 11.925 A 5.852 5.852 0 0 0 113.73 10.598 A 4.763 4.763 0 0 0 113.362 9.563 A 4.261 4.261 0 0 0 112.499 8.366 A 3.951 3.951 0 0 0 111.95 7.925 A 3.587 3.587 0 0 0 110.147 7.333 A 4.422 4.422 0 0 0 109.875 7.325 Q 108.7 7.325 107.8 7.925 A 4.071 4.071 0 0 0 106.461 9.419 A 4.852 4.852 0 0 0 106.388 9.562 A 4.934 4.934 0 0 0 105.925 11.125 A 6.219 6.219 0 0 0 105.875 11.925 A 5.852 5.852 0 0 0 106.02 13.252 A 4.763 4.763 0 0 0 106.388 14.287 A 4.261 4.261 0 0 0 107.251 15.484 A 3.951 3.951 0 0 0 107.8 15.925 A 3.587 3.587 0 0 0 109.603 16.517 A 4.422 4.422 0 0 0 109.875 16.525 Z M 22.25 16.4 A 4.014 4.014 0 0 0 23.621 16.171 A 3.689 3.689 0 0 0 24.35 15.812 Q 25.275 15.225 25.8 14.212 Q 26.301 13.246 26.301 12.04 A 5.885 5.885 0 0 0 26.3 11.925 A 6.115 6.115 0 0 0 26.301 11.807 Q 26.301 11.136 26.151 10.542 A 4.298 4.298 0 0 0 25.8 9.612 Q 25.275 8.6 24.35 8.025 A 3.841 3.841 0 0 0 22.477 7.455 A 4.659 4.659 0 0 0 22.25 7.45 A 4.022 4.022 0 0 0 20.762 7.721 A 3.793 3.793 0 0 0 20.138 8.038 Q 19.2 8.625 18.675 9.638 Q 18.174 10.604 18.174 11.81 A 5.885 5.885 0 0 0 18.175 11.925 A 5.885 5.885 0 0 0 18.174 12.04 Q 18.174 13.246 18.675 14.212 Q 19.2 15.225 20.138 15.813 A 3.872 3.872 0 0 0 22.14 16.399 A 4.635 4.635 0 0 0 22.25 16.4 Z M 2.7 10.85 L 2.7 15.9 L 7.4 15.9 Q 8.925 15.9 9.775 15.225 A 2.195 2.195 0 0 0 10.594 13.757 A 3.237 3.237 0 0 0 10.625 13.3 A 2.431 2.431 0 0 0 10.534 12.623 A 1.991 1.991 0 0 0 10.213 11.975 A 2.362 2.362 0 0 0 9.488 11.344 A 3.117 3.117 0 0 0 9.05 11.137 Q 8.3 10.85 7.275 10.85 L 2.7 10.85 Z M 99.125 10.825 L 90.7 10.825 L 90.7 8.225 L 99.125 8.225 L 99.125 10.825 Z M 2.7 3.6 L 2.7 8.25 L 7.15 8.25 A 3.208 3.208 0 0 0 7.901 8.165 A 2.64 2.64 0 0 0 8.487 7.95 A 2.387 2.387 0 0 0 9.228 7.373 A 2.289 2.289 0 0 0 9.412 7.125 A 2.135 2.135 0 0 0 9.746 6.071 A 2.606 2.606 0 0 0 9.75 5.925 A 2.696 2.696 0 0 0 9.661 5.214 A 1.908 1.908 0 0 0 9 4.2 Q 8.25 3.6 6.85 3.6 L 2.7 3.6 Z" vector-effect="non-scaling-stroke"/></g></svg>